<?xml version="1.0" encoding="utf-8"?>
<!DOCTYPE svg PUBLIC "-//W3C//DTD SVG 1.1//EN" "http://www.w3.org/Graphics/SVG/1.1/DTD/svg.dtd">
<svg version="1.1" id="Layer_1" xmlns="http://www.w3.org/2000/svg" x="0px" y="0px"
     width="511.367px" height="176.184px" viewBox="0 0 511.367 176.184" enable-background="new 0 0 511.367 176.184"
     xml:space="preserve">
<g>
	<path fill="#008FD0" d="M490.918,0H245.352h-66.194h-19.954v18.868v39.973c6.699,2.962,11.278,9.526,11.278,17.389
		c0,7.848-4.586,14.372-11.278,17.33v31.099v18.869h19.954h66.194h245.566c10.977,0,19.955-8.487,19.955-18.869V18.868
		C510.873,8.49,501.895,0,490.918,0z M496.793,124.658c0,2.597-2.689,4.788-5.875,4.788H245.352h-66.194h-5.873v-4.788v-23.569
		c7.047-6.168,11.278-15.181,11.278-24.859c0-9.704-4.232-18.736-11.278-24.916V18.868v-4.787h5.873h66.194h245.566
		c3.131,0,5.875,2.237,5.875,4.787V124.658z"/>
</g>
    <path fill="#008FD0" d="M159.204,68.264c-1.769-1.748-4.156-2.885-6.883-3.131c-0.374-0.034-0.753-0.053-1.137-0.053v-3.991h-0.073
	V0H131.67H26.721h-6.072C9.293,0,0,8.49,0,18.868v105.791c0,10.382,9.293,18.869,20.648,18.869h6.072H131.67h18.388V87.417h1.126
	v-0.061c0.383,0,0.763-0.018,1.137-0.054c2.727-0.246,5.114-1.377,6.883-3.124c2.014-1.988,3.227-4.773,3.227-7.948
	C162.431,73.048,161.218,70.259,159.204,68.264z M118.841,82.392c-0.277,3.531-0.772,6.763-1.486,9.699
	c-0.714,2.932-1.707,5.553-2.973,7.849c-1.271,2.302-2.897,4.326-4.879,6.069c-1.745,1.508-3.628,2.734-5.65,3.686
	c-2.023,0.952-4.087,1.688-6.187,2.203c-2.103,0.515-4.146,0.853-6.127,1.01c-1.983,0.162-3.768,0.238-5.354,0.238H45.261v-20.7
	h24.865c4.282,0,7.494-0.218,9.635-0.654s3.727-0.852,4.759-1.249c2.933-1.189,4.877-2.795,5.831-4.817
	c0.95-2.023,1.386-3.907,1.308-5.652H47.997V61.276h43.662c-0.476-2.458-1.349-4.284-2.618-5.472
	c-1.27-1.191-2.419-2.063-3.449-2.617c-2.064-1.111-4.225-1.825-6.485-2.143c-2.259-0.316-4.74-0.477-7.435-0.477h-25.34V29.869
	h39.854c6.345,0,11.5,0.854,15.466,2.558c3.964,1.707,7.02,3.629,9.161,5.77c1.981,1.984,3.528,4.283,4.639,6.9
	c1.11,2.617,1.942,5.353,2.498,8.209c0.554,2.855,0.912,5.791,1.071,8.802c0.158,3.016,0.239,5.91,0.239,8.685
	C119.259,74.998,119.119,78.865,118.841,82.392z"/>
    <path fill="#008FD0" d="M230.269,38.232c0.396-1.031,0.968-2.104,1.724-3.213c0.754-1.11,1.824-2.121,3.211-3.034
	c1.388-0.913,3.233-1.667,5.534-2.261c2.299-0.594,5.192-0.891,8.684-0.891c3.491,0,6.383,0.297,8.685,0.891
	c2.299,0.594,4.142,1.348,5.533,2.261c1.387,0.913,2.456,1.924,3.213,3.034c0.75,1.109,1.325,2.182,1.724,3.213l22.365,54.13h8.33
	v20.698h-99.697V92.362h8.209L230.269,38.232z M234.789,92.362h29.267l-13.327-36.167c-0.158-0.396-0.316-0.851-0.474-1.367
	c-0.16-0.517-0.438-0.775-0.833-0.775c-0.397,0-0.674,0.258-0.832,0.775c-0.161,0.516-0.319,0.971-0.476,1.367L234.789,92.362z"/>
    <path fill="#008FD0" d="M357.867,113.061l1.19-32.716c0-0.476-0.041-0.91-0.118-1.308c-0.082-0.397-0.357-0.594-0.833-0.594
	c-0.398,0-0.754,0.197-1.072,0.594c-0.316,0.397-0.674,0.832-1.07,1.308L333.599,108.3c-0.952,1.191-1.864,2.165-2.736,2.916
	c-0.875,0.756-1.769,1.309-2.679,1.669c-0.913,0.354-1.884,0.594-2.913,0.71c-1.034,0.121-2.184,0.179-3.451,0.179
	c-1.271,0-2.676-0.097-4.222-0.295c-1.545-0.2-2.997-0.715-4.345-1.548c-1.348-0.831-2.479-2.021-3.389-3.57
	c-0.913-1.545-1.367-3.707-1.367-6.482v-51.87h23.316l-1.19,32.718c0,0.553,0.058,0.992,0.179,1.308
	c0.118,0.318,0.418,0.476,0.891,0.476c0.476,0,0.894-0.219,1.249-0.656c0.36-0.436,0.657-0.813,0.894-1.127l22.843-28.673
	c0.477-0.555,0.969-1.129,1.488-1.723c0.512-0.598,1.188-1.111,2.021-1.545c0.83-0.438,1.82-0.792,2.973-1.074
	c1.149-0.275,2.638-0.415,4.461-0.415c3.331,0,5.907,0.517,7.733,1.547c1.823,1.03,3.171,2.221,4.046,3.569
	c0.872,1.348,1.386,2.735,1.546,4.161c0.159,1.429,0.239,2.54,0.239,3.332v51.156H357.867z"/>
    <path fill="#008FD0" d="M476.063,113.061h-26.889V79.988h-30.217v33.072h-26.886V29.783h26.886v29.504h30.217V29.783h26.889V113.061
	z"/>
    <g>
	<path fill="#008FD0" d="M9.216,161.434c3.898,0,7.817,2.291,7.817,7.736c0,5.157-3.939,7.324-7.9,7.324
		c-1.423,0-2.847-0.311-4.104-0.907v-3.713c0.907,0.863,2.228,1.215,3.527,1.215c2.125,0,4.084-0.453,4.621-2.535H7.194v-3.198h5.92
		c-0.598-2.063-2.393-2.495-4.476-2.517c-1.217,0-2.661,0.33-3.609,1.113v-3.61C6.287,161.745,7.751,161.434,9.216,161.434z"/>
        <path fill="#008FD0" d="M32.632,161.745v14.438h-3.816v-11.037h-3.115c-0.454,5.921-1.175,11.202-5.321,11.221
		c-0.536,0-1.135-0.082-1.774-0.286v-3.322c0.268,0.083,0.598,0.124,0.99,0.083c2.331-0.247,2.29-6.725,2.62-11.097H32.632z"/>
        <path fill="#008FD0"
              d="M46.791,161.745v3.3h-6.58v2.208h5.961v3.278H40.21v2.352h6.704v3.301h-10.52v-14.438H46.791z"/>
        <path fill="#008FD0" d="M50.158,176.184v-14.438h3.816v5.464h1.815l3.28-5.464h4.229l-4.538,7.032l4.744,7.406h-4.229l-3.506-5.569
		h-1.794v5.569H50.158z"/>
        <path fill="#008FD0" d="M76.627,161.745v3.401h-4.063v11.037h-3.816v-11.037h-4.084v-3.401H76.627z"/>
        <path fill="#008FD0" d="M85.007,161.745c3.568,0,6.291,1.154,6.291,4.95c0,3.795-2.723,4.931-6.291,4.95h-1.898v4.538h-3.816
		v-14.438H85.007z M85.193,165.045h-2.083v3.3h2.083c1.155,0,2.187-0.349,2.187-1.649S86.348,165.045,85.193,165.045z"/>
        <path fill="#008FD0" d="M101.165,161.434c5.157,0,7.735,3.51,7.735,7.53c0,4.021-2.578,7.53-7.735,7.53s-7.735-3.509-7.735-7.53
		C93.43,164.943,96.008,161.434,101.165,161.434z M101.165,164.943c-2.496,0-3.816,1.71-3.816,4.021s1.32,4.021,3.816,4.021
		c2.496,0,3.816-1.711,3.816-4.021S103.661,164.943,101.165,164.943z"/>
        <path fill="#008FD0"
              d="M124.933,161.745v14.438h-3.816v-5.509h-5.363v5.509h-3.816v-14.438h3.816v5.527h5.363v-5.527H124.933z"/>
        <path fill="#008FD0"
              d="M141.689,161.745v14.438h-3.816v-5.509h-5.363v5.509h-3.816v-14.438h3.816v5.527h5.363v-5.527H141.689z"/>
        <path fill="#008FD0" d="M145.45,176.184v-14.438h3.816v4.537h1.897c3.568,0.02,6.291,1.155,6.291,4.951
		c0,3.795-2.723,4.95-6.291,4.95H145.45z M149.266,172.883h2.083c1.155,0,2.186-0.349,2.186-1.649s-1.031-1.65-2.186-1.65h-2.083
		V172.883z M158.382,176.184v-14.438h3.816v14.438H158.382z"/>
        <path fill="#008FD0"
              d="M176.356,161.745v3.3h-6.58v2.208h5.961v3.278h-5.961v2.352h6.704v3.301h-10.52v-14.438H176.356z"/>
        <path fill="#008FD0" d="M184.12,179.173v-6.29h1.65c1.856-3.3,2.269-7.323,2.269-11.138h10.313v11.138h1.856v6.29h-3.3v-2.989
		h-9.488v2.989H184.12z M189.792,172.883h4.744v-7.736h-2.991C191.339,167.974,190.927,170.779,189.792,172.883z"/>
        <path fill="#008FD0" d="M209.89,161.434c5.157,0,7.735,3.51,7.735,7.53c0,4.021-2.578,7.53-7.735,7.53s-7.735-3.509-7.735-7.53
		C202.155,164.943,204.733,161.434,209.89,161.434z M209.89,164.943c-2.496,0-3.816,1.71-3.816,4.021s1.32,4.021,3.816,4.021
		s3.816-1.711,3.816-4.021S212.385,164.943,209.89,164.943z"/>
        <path fill="#008FD0" d="M220.665,176.184v-14.438h3.816v5.464h1.815l3.28-5.464h4.229l-4.538,7.032l4.744,7.406h-4.229
		l-3.506-5.569h-1.794v5.569H220.665z"/>
        <path fill="#008FD0" d="M239.029,176.494c-0.743,0-1.526-0.165-2.31-0.394v-3.154c0.495,0.185,1.114,0.286,1.671,0.286
		c0.907,0,1.547-0.247,1.877-0.99l0.227-0.495l-5.631-10.002h4.229l3.176,6.581l2.599-6.581h4.229l-5.219,11.138
		C242.577,175.669,240.989,176.494,239.029,176.494z"/>
        <path fill="#008FD0" d="M267.438,161.745v14.438h-3.815v-7.673l-3.097,4.744h-2.184l-3.095-4.764v7.692h-3.816v-14.438h3.609
		l4.394,6.766l4.393-6.766H267.438z"/>
        <path fill="#008FD0"
              d="M281.595,161.745v3.3h-6.581v2.208h5.963v3.278h-5.963v2.352h6.705v3.301H271.2v-14.438H281.595z"/>
        <path fill="#008FD0"
              d="M297.959,161.745v14.438h-3.814v-5.509h-5.363v5.509h-3.817v-14.438h3.817v5.527h5.363v-5.527H297.959z"/>
        <path fill="#008FD0" d="M312.587,161.745v3.401h-4.062v11.037h-3.814v-11.037h-4.087v-3.401H312.587z"/>
        <path fill="#008FD0" d="M315.255,176.184v-14.438h3.817v4.537h1.897c3.567,0.02,6.29,1.155,6.29,4.951
		c0,3.795-2.723,4.95-6.29,4.95H315.255z M319.073,172.883h2.082c1.154,0,2.186-0.349,2.186-1.649s-1.031-1.65-2.186-1.65h-2.082
		V172.883z M328.187,176.184v-14.438h3.817v14.438H328.187z"/>
        <path fill="#008FD0" d="M350.271,176.184v-5.899c0-0.784,0.019-1.691,0.082-2.371l-5.654,8.271h-3.608v-14.438h3.817v5.898
		c0,0.804-0.021,1.711-0.082,2.393l5.648-8.291h3.611v14.438H350.271z"/>
        <path fill="#008FD0"
              d="M376.164,161.745v14.438h-3.814v-5.509h-5.362v5.509h-3.817v-14.438h3.817v5.527h5.362v-5.527H376.164z"/>
        <path fill="#008FD0" d="M378.586,176.184l5.671-14.438h4.126l5.671,14.438h-3.917l-0.824-2.27h-5.985l-0.824,2.27H378.586z
		 M384.464,170.82h3.712l-1.484-4.167c-0.124-0.352-0.248-0.701-0.371-1.463c-0.124,0.762-0.248,1.111-0.372,1.463L384.464,170.82z"
        />
        <path fill="#008FD0" d="M396.474,176.184v-14.438h3.817v5.464h1.814l3.278-5.464h4.23l-4.538,7.032l4.741,7.406h-4.227
		l-3.507-5.569h-1.793v5.569H396.474z"/>
        <path fill="#008FD0" d="M425.131,161.745v14.438h-3.817v-11.037h-3.113c-0.454,5.921-1.177,11.202-5.321,11.221
		c-0.537,0-1.137-0.082-1.774-0.286v-3.322c0.27,0.083,0.6,0.124,0.99,0.083c2.332-0.247,2.288-6.725,2.618-11.097H425.131z"/>
        <path fill="#008FD0" d="M427.551,176.184l5.674-14.438h4.125l5.674,14.438h-3.922l-0.824-2.27h-5.979l-0.826,2.27H427.551z
		 M433.432,170.82h3.713l-1.486-4.167c-0.123-0.352-0.246-0.701-0.371-1.463c-0.123,0.762-0.248,1.111-0.371,1.463L433.432,170.82z"
        />
        <path fill="#008FD0" d="M444.514,179.173v-6.29h1.65c1.854-3.3,2.268-7.323,2.268-11.138h10.313v11.138h1.859v6.29h-3.301v-2.989
		h-9.488v2.989H444.514z M450.186,172.883h4.744v-7.736h-2.99C451.73,167.974,451.318,170.779,450.186,172.883z"/>
        <path fill="#008FD0"
              d="M476.574,161.745v14.438h-3.814v-5.509h-5.363v5.509h-3.818v-14.438h3.818v5.527h5.363v-5.527H476.574z"/>
        <path fill="#008FD0" d="M480.336,176.184v-14.438h3.814v4.537h1.898c3.568,0.02,6.291,1.155,6.291,4.951
		c0,3.795-2.723,4.95-6.291,4.95H480.336z M484.15,172.883h2.084c1.156,0,2.188-0.349,2.188-1.649s-1.031-1.65-2.188-1.65h-2.084
		V172.883z M493.27,176.184v-14.438h3.814v14.438H493.27z"/>
        <path fill="#008FD0"
              d="M511.242,161.745v3.3h-6.58v2.208h5.961v3.278h-5.961v2.352h6.705v3.301h-10.52v-14.438H511.242z"/>
</g>
</svg>
